<?xml version="1.0" encoding="utf-8"?>
<!-- Generator: Adobe Illustrator 27.4.1, SVG Export Plug-In . SVG Version: 6.00 Build 0)  -->
<svg version="1.1" id="Laag_1" xmlns="http://www.w3.org/2000/svg" xmlns:xlink="http://www.w3.org/1999/xlink" x="0px" y="0px"
	 viewBox="0 0 841.9 165.5" style="enable-background:new 0 0 841.9 165.5;" xml:space="preserve">
<style type="text/css">
	.st0{display:none;}
	.st1{fill:#FFFFFF;}
	.st2{font-family:'UppercutAngle';}
	.st3{font-size:100px;}
</style>
<g id="sajblooom" class="st0">
	
		<image style="display:inline;overflow:visible;enable-background:new    ;" width="1288" height="473" xlink:href="8755912F.jpeg"  transform="matrix(0.3036 0 0 0.3036 243.6264 -15.5451)">
	</image>
</g>
<g id="Laag_2_00000023242450491563815470000003256774229686615687_">
	<text transform="matrix(1 0 0 1 26.3711 90.5558)" class="st1 st2 st3">S</text>
	<text transform="matrix(1 0 0 1 91.1202 117.3979)" class="st1 st2 st3">O</text>
	<text transform="matrix(1 0 0 1 175.0629 78.1735)" class="st1 st2 st3">U</text>
	<text transform="matrix(1 0 0 1 265.8917 86.0519)" class="st1 st2 st3">N</text>
	<text transform="matrix(1 0 0 1 365.6561 103.1812)" class="st1 st2 st3">D</text>
	<text transform="matrix(1 0 0 1 461.7439 79.6561)" class="st1 st2 st3">F</text>
	<text transform="matrix(1 0 0 1 533.41 113.7134)" class="st1 st2 st3">L</text>
	<text transform="matrix(1 0 0 1 605.5144 99.8093)" class="st1 st2 st3">O</text>
	<text transform="matrix(1 0 0 1 694.8033 70.999)" class="st1 st2 st3">W</text>
	<path class="st1" d="M226.4,153.2c48,4.9,129-44.6,161.3-50.4s50.2-32.4,49.6-36.5s-19.9-2.9-19.9-2.9s-8.2,18.7-37.3,27.2
		c-29,8.5-89.6,47.7-167.2,48.3L226.4,153.2z"/>
	<path class="st1" d="M368.6,88.4c-28,7-85.2,33-161,39.8l13.8,6.5c47.1-1.4,123.9-34.6,155.2-40.4"/>
</g>
</svg>
