<?xml version="1.0" encoding="utf-8"?>
<!-- Generator: Adobe Illustrator 27.2.0, SVG Export Plug-In . SVG Version: 6.00 Build 0)  -->
<svg version="1.1" id="Layer_1" xmlns="http://www.w3.org/2000/svg" xmlns:xlink="http://www.w3.org/1999/xlink" x="0px" y="0px"
	 viewBox="0 0 5000 3000" style="enable-background:new 0 0 5000 3000;" xml:space="preserve">
<style type="text/css">
	.st0{fill:#FFFFFF;}
</style>
<path class="st0" d="M3119.37,1243.66l2.14-10.71h-120.99l-2.15,10.71c26.77,1.07,23.55,31.05-12.84,65.31l-411.16,364.05
	l72.81-362.98c9.64-50.32,33.19-59.96,61.03-66.39l2.14-10.71h-160.61l-2.14,10.71c25.7,6.42,44.97,16.06,35.33,66.39l-84.08,417.41
	c-35.99,16.84-76,26.75-120.33,26.75c-160.61,0-335.14-99.58-279.46-374.76c51.4-254.84,203.44-351.2,364.05-351.2
	c226.99,0,84.59,193.8,191.66,193.8c69.6,0,91.01-204.51-189.52-204.51c-224.85,0-392.96,149.9-441.14,385.46
	c-47.11,235.56,62.1,385.47,286.96,385.47c70.63,0,130.86-13.26,183.42-39.35L2463,1905.38c-9.64,50.32-33.19,59.96-61.03,66.38
	c-1.07,4.29-2.14,10.71-2.14,10.71h160.61l2.15-10.71c-25.7-6.42-44.97-16.06-35.34-66.38l41.56-205.77
	c20.69-17.76,149.03-141.15,149.03-141.15l175.6,349.06c22.49,46.04,17.13,61.03-13.92,64.24l-2.14,10.71h160.61l2.14-10.71
	c-25.7-6.42-48.18-27.84-69.59-70.67l-200.23-388.68l225.93-200.23C3048.7,1266.14,3091.53,1250.08,3119.37,1243.66z"/>
</svg>
